#format: frame checksums
#version: 2
#hash: MD5
#extradata 0,                              42, e89deaac1c1a77d78033d7d9c66b8264
#tb 0: 1/61440
#media_type 0: video
#codec_id 0: ffv1
#dimensions 0: 320x180
#sar 0: 0/1
#stream#, dts,        pts, duration,     size, hash
0,          0,          0,     4096,      504, de26a1fa1fca4a206b6d04f8a99d202e
0,       4096,       4096,     4096,      517, 4ef90a958683cc7f556beef4fbc36c97
0,       8192,       8192,     4096,      517, ac29209c509c26f2b0ae1379144eae5c
0,      12288,      12288,     4096,      517, ea14ce9687381ff17bc89099c8dd4c8c
0,      16384,      16384,     4096,      517, 5c7054b3fc4ed7d9ca20adab59c03e90
0,      20480,      20480,     4096,      517, e7ba39387e7a0b121eb459387f1e4d24
0,      24576,      24576,     4096,      517, e68560dec9232250d08c12eb90feb002
0,      28672,      28672,     4096,      517, a76e3de13d6d1d9226551330024856ad
0,      32768,      32768,     4096,      517, 84e1846d69092427b3cba74d5070f558
0,      36864,      36864,     4096,      517, f830296c405be2083ec6c824fc0acd15
0,      40960,      40960,     4096,      539, ef8430f2291a7973ec9d90c07dfda124
0,      45056,      45056,     4096,      536, 0f52f48bc0e95fd3b3de38a72aa3d59f
0,      49152,      49152,     4096,      535, 57b8c9ab17955b7d91a791e35adc3323
0,      53248,      53248,     4096,      527, c3db032fd40cb896a090fb5e6e126b8e
0,      57344,      57344,     4096,      534, b1cdf087ea179433b08be353f834c378
0,      61440,      61440,     4096,      539, 29c2cad723d9cde77dc45b0f3e67e02d
0,      65536,      65536,     4096,      543, b02d1d45cc89ef8d4a0018e816229bf7
0,      69632,      69632,     4096,      545, 0f2da7fcd8bde963f001badbc547ce4b
0,      73728,      73728,     4096,      575, 2f8a5eb41198e3d765497c9211e99f28
0,      77824,      77824,     4096,      567, 542ee3f7ecdd3de0ad90cde8406105ab
0,      81920,      81920,     4096,      562, 3752cc0ab19c033115216b847a6229b4
0,      86016,      86016,     4096,      517, 31e02cc8fbf6d5ce70e34efb8e65c401
0,      90112,      90112,     4096,      517, 8a51b64a46f596a33d6682c699e01007
0,      94208,      94208,     4096,      517, a41c6abd7cbafa215522041f0867e8a5
0,      98304,      98304,     4096,      517, db84b678c8cf9242ca62585f2cce0e73
0,     102400,     102400,     4096,      517, cc693a672c77b1208a8f444c381916ec
0,     106496,     106496,     4096,      517, dc870cf244764d02bb54046a259a3a8a
0,     110592,     110592,     4096,      517, 45daec1abf62e3d8787f567b8ec66a41
0,     114688,     114688,     4096,      517, 9c5255c22f565bbb6b1f41e521497cc2
0,     118784,     118784,     4096,      517, c2c8f408fee07754cb6d866e4622ab7e
0,     122880,     122880,     4096,      464, 3ff5346c3463b48fb673763c2878bd4f
